<svg width="1663" height="784" viewBox="0 0 1663 784" fill="none" xmlns="http://www.w3.org/2000/svg">
<path d="M616.08 5.07007V517.63H456.09V262.07L377.18 517.63H239.63L160.72 262.07V517.63H0V5.07007H196.92L309.86 312.75L419.9 5.07007H616.09H616.08Z" fill="url(#paint0_linear_2863_324)"/>
<path d="M973.71 180.27C967.43 170.13 958.51 162.3 946.92 156.74C935.34 151.2 921.33 148.41 904.93 148.41C874.04 148.41 850.15 158.43 833.26 178.45C816.36 198.48 807.92 225.87 807.92 260.62C807.92 300.69 817.33 330.61 836.15 350.39C854.97 370.19 883.93 380.07 923.03 380.07C962.13 380.07 990.11 365.12 1012.8 335.18H884.66V221.52H1146.01V382.24C1123.8 420.37 1093.16 453.07 1054.07 480.34C1014.98 507.61 965.5 521.24 905.66 521.24C852.56 521.24 806.35 510.27 767.02 488.3C727.68 466.34 697.52 435.58 676.53 396C655.53 356.43 645.04 311.3 645.04 260.62C645.04 209.94 655.54 164.82 676.53 125.24C697.53 85.67 727.57 54.9 766.66 32.94C805.75 10.98 851.6 0 904.21 0C971.29 0 1025.95 16.18 1068.19 48.5C1110.42 80.84 1135.39 124.76 1143.12 180.26H973.71V180.27Z" fill="url(#paint1_linear_2863_324)"/>
<path d="M1191.26 125.25C1211.77 85.68 1241.09 54.91 1279.22 32.95C1317.34 10.99 1362.23 0.0100098 1413.88 0.0100098C1458.28 0.0100098 1497.97 8.33999 1532.97 24.99C1567.96 41.64 1596.43 65.17 1618.4 95.58C1640.36 125.99 1654.96 161.46 1662.2 202H1492.79C1485.06 185.11 1474.08 171.96 1459.85 162.54C1445.61 153.13 1429.32 148.42 1410.98 148.42C1383.94 148.42 1362.59 158.56 1346.91 178.83C1331.22 199.1 1323.38 226.37 1323.38 260.64C1323.38 294.91 1331.22 322.18 1346.91 342.45C1362.59 362.72 1383.95 372.86 1410.98 372.86C1429.32 372.86 1445.6 368.15 1459.85 358.74C1474.08 349.33 1485.06 336.18 1492.79 319.28H1662.2C1654.96 359.82 1640.36 395.3 1618.4 425.7C1596.43 456.11 1567.96 479.63 1532.97 496.28C1497.97 512.93 1458.28 521.26 1413.88 521.26C1362.23 521.26 1317.34 510.29 1279.22 488.32C1241.09 466.36 1211.77 435.6 1191.26 396.02C1170.74 356.45 1160.49 311.32 1160.49 260.64C1160.49 209.96 1170.74 164.84 1191.26 125.26V125.25Z" fill="url(#paint2_linear_2863_324)"/>
<path d="M143.81 590.73V616.21H93.1197V781.15H61.8897V616.21H10.9297V590.73H143.81Z" fill="url(#paint3_linear_2863_324)"/>
<path d="M195.59 615.94V671.83H261.35V697.31H195.59V755.67H269.56V781.15H164.35V590.46H269.56V615.94H195.59Z" fill="url(#paint4_linear_2863_324)"/>
<path d="M299.56 635.39C308.23 620.6 320.01 609.05 334.9 600.73C349.78 592.42 366.09 588.26 383.81 588.26C404.08 588.26 422.12 593.24 437.92 603.19C453.72 613.15 465.18 627.26 472.3 645.52H434.76C429.83 635.48 422.98 627.98 414.21 623.05C405.44 618.12 395.31 615.65 383.8 615.65C371.2 615.65 359.96 618.48 350.1 624.14C340.24 629.8 332.52 637.93 326.95 648.52C321.38 659.12 318.59 671.44 318.59 685.51C318.59 699.58 321.37 711.91 326.95 722.5C332.52 733.1 340.24 741.27 350.1 747.02C359.96 752.77 371.2 755.65 383.8 755.65C395.31 755.65 405.44 753.18 414.21 748.25C422.98 743.32 429.83 735.83 434.76 725.78H472.3C465.18 744.05 453.71 758.11 437.92 767.97C422.12 777.83 404.08 782.76 383.81 782.76C365.91 782.76 349.56 778.61 334.77 770.29C319.98 761.98 308.24 750.43 299.56 735.63C290.88 720.84 286.55 704.12 286.55 685.49C286.55 666.86 290.89 650.15 299.56 635.35V635.39Z" fill="url(#paint5_linear_2863_324)"/>
<path d="M654.23 781.15H623L529.02 638.95V781.15H497.79V590.46H529.02L623 732.38V590.46H654.23V781.15Z" fill="url(#paint6_linear_2863_324)"/>
<path d="M722.31 770.6C707.42 762.29 695.64 750.69 686.97 735.8C678.29 720.92 673.96 704.16 673.96 685.52C673.96 666.88 678.3 650.18 686.97 635.38C695.64 620.59 707.42 609.04 722.31 600.72C737.19 592.41 753.5 588.25 771.22 588.25C788.94 588.25 805.51 592.41 820.4 600.72C835.29 609.03 847.02 620.58 855.61 635.38C864.19 650.17 868.49 666.89 868.49 685.52C868.49 704.15 864.2 720.91 855.61 735.8C847.02 750.69 835.29 762.29 820.4 770.6C805.51 778.91 789.12 783.07 771.22 783.07C753.32 783.07 737.2 778.92 722.31 770.6ZM804.92 747.31C814.78 741.56 822.5 733.34 828.07 722.65C833.64 711.97 836.43 699.59 836.43 685.53C836.43 671.47 833.64 659.14 828.07 648.54C822.5 637.95 814.78 629.82 804.92 624.16C795.06 618.5 783.82 615.67 771.22 615.67C758.62 615.67 747.38 618.5 737.52 624.16C727.66 629.82 719.94 637.95 714.37 648.54C708.8 659.14 706.01 671.46 706.01 685.53C706.01 699.6 708.79 711.97 714.37 722.65C719.94 733.34 727.66 741.56 737.52 747.31C747.38 753.06 758.62 755.94 771.22 755.94C783.82 755.94 795.06 753.06 804.92 747.31Z" fill="url(#paint7_linear_2863_324)"/>
<path d="M919.44 755.94H983.83V781.15H888.21V590.73H919.44V755.94Z" fill="url(#paint8_linear_2863_324)"/>
<path d="M1036.84 770.6C1021.95 762.29 1010.17 750.69 1001.5 735.8C992.819 720.92 988.489 704.16 988.489 685.52C988.489 666.88 992.829 650.18 1001.5 635.38C1010.17 620.59 1021.95 609.04 1036.84 600.72C1051.72 592.41 1068.03 588.25 1085.75 588.25C1103.47 588.25 1120.04 592.41 1134.93 600.72C1149.81 609.03 1161.55 620.58 1170.14 635.38C1178.72 650.17 1183.02 666.89 1183.02 685.52C1183.02 704.15 1178.73 720.91 1170.14 735.8C1161.55 750.69 1149.82 762.29 1134.93 770.6C1120.04 778.91 1103.65 783.07 1085.75 783.07C1067.85 783.07 1051.73 778.92 1036.84 770.6ZM1119.44 747.31C1129.3 741.56 1137.02 733.34 1142.59 722.65C1148.16 711.97 1150.95 699.59 1150.95 685.53C1150.95 671.47 1148.16 659.14 1142.59 648.54C1137.02 637.95 1129.3 629.82 1119.44 624.16C1109.58 618.5 1098.34 615.67 1085.74 615.67C1073.14 615.67 1061.9 618.5 1052.04 624.16C1042.18 629.82 1034.46 637.95 1028.89 648.54C1023.32 659.14 1020.53 671.46 1020.53 685.53C1020.53 699.6 1023.31 711.97 1028.89 722.65C1034.46 733.34 1042.18 741.56 1052.04 747.31C1061.9 753.06 1073.14 755.94 1085.74 755.94C1098.34 755.94 1109.58 753.06 1119.44 747.31Z" fill="url(#paint9_linear_2863_324)"/>
<path d="M1340.54 645.53C1335.61 636.03 1328.76 628.86 1319.99 624.02C1311.22 619.18 1301.09 616.76 1289.58 616.76C1276.98 616.76 1265.74 619.59 1255.88 625.25C1246.02 630.91 1238.3 638.95 1232.73 649.36C1227.16 659.77 1224.37 671.83 1224.37 685.53C1224.37 699.23 1227.15 711.33 1232.73 721.83C1238.3 732.33 1246.02 740.42 1255.88 746.08C1265.74 751.74 1276.98 754.57 1289.58 754.57C1306.57 754.57 1320.36 749.82 1330.95 740.32C1341.54 730.82 1348.03 717.95 1350.4 701.69H1278.89V676.76H1383.82V701.14C1381.81 715.93 1376.56 729.54 1368.07 741.96C1359.58 754.38 1348.52 764.29 1334.92 771.69C1321.31 779.09 1306.19 782.79 1289.58 782.79C1271.68 782.79 1255.33 778.64 1240.54 770.32C1225.75 762.01 1214.01 750.46 1205.33 735.66C1196.65 720.87 1192.32 704.15 1192.32 685.52C1192.32 666.89 1196.66 650.18 1205.33 635.38C1214 620.59 1225.78 609.04 1240.67 600.72C1255.55 592.41 1271.86 588.25 1289.58 588.25C1309.85 588.25 1327.89 593.23 1343.69 603.18C1359.49 613.14 1370.95 627.25 1378.07 645.51H1340.53L1340.54 645.53Z" fill="url(#paint10_linear_2863_324)"/>
<path d="M1434.79 590.73V781.15H1403.56V590.73H1434.79Z" fill="url(#paint11_linear_2863_324)"/>
<path d="M1579.72 742.25H1499.99L1486.29 781.16H1453.69L1521.91 590.47H1558.08L1626.3 781.16H1593.42L1579.72 742.25ZM1570.96 716.76L1540 628.26L1508.77 716.76H1570.96Z" fill="url(#paint12_linear_2863_324)"/>
<defs>
<linearGradient id="paint0_linear_2863_324" x1="-0.01" y1="261.35" x2="616.08" y2="261.35" gradientUnits="userSpaceOnUse">
<stop stop-color="#FF00FF"/>
<stop offset="1" stop-color="#FF70DF"/>
</linearGradient>
<linearGradient id="paint1_linear_2863_324" x1="645.03" y1="260.63" x2="1146.01" y2="260.63" gradientUnits="userSpaceOnUse">
<stop stop-color="#FF00FF"/>
<stop offset="1" stop-color="#FF70DF"/>
</linearGradient>
<linearGradient id="paint2_linear_2863_324" x1="1160.49" y1="260.63" x2="1662.19" y2="260.63" gradientUnits="userSpaceOnUse">
<stop stop-color="#FF00FF"/>
<stop offset="1" stop-color="#FF70DF"/>
</linearGradient>
<linearGradient id="paint3_linear_2863_324" x1="10.9297" y1="685.94" x2="143.81" y2="685.94" gradientUnits="userSpaceOnUse">
<stop stop-color="#FF00FF"/>
<stop offset="1" stop-color="#FF70DF"/>
</linearGradient>
<linearGradient id="paint4_linear_2863_324" x1="164.36" y1="685.81" x2="269.57" y2="685.81" gradientUnits="userSpaceOnUse">
<stop stop-color="#FF00FF"/>
<stop offset="1" stop-color="#FF70DF"/>
</linearGradient>
<linearGradient id="paint5_linear_2863_324" x1="286.55" y1="685.53" x2="472.31" y2="685.53" gradientUnits="userSpaceOnUse">
<stop stop-color="#FF00FF"/>
<stop offset="1" stop-color="#FF70DF"/>
</linearGradient>
<linearGradient id="paint6_linear_2863_324" x1="497.79" y1="685.81" x2="654.23" y2="685.81" gradientUnits="userSpaceOnUse">
<stop stop-color="#FF00FF"/>
<stop offset="1" stop-color="#FF70DF"/>
</linearGradient>
<linearGradient id="paint7_linear_2863_324" x1="673.95" y1="685.67" x2="868.48" y2="685.67" gradientUnits="userSpaceOnUse">
<stop stop-color="#FF00FF"/>
<stop offset="1" stop-color="#FF70DF"/>
</linearGradient>
<linearGradient id="paint8_linear_2863_324" x1="888.21" y1="685.94" x2="983.82" y2="685.94" gradientUnits="userSpaceOnUse">
<stop stop-color="#FF00FF"/>
<stop offset="1" stop-color="#FF70DF"/>
</linearGradient>
<linearGradient id="paint9_linear_2863_324" x1="988.479" y1="685.67" x2="1183" y2="685.67" gradientUnits="userSpaceOnUse">
<stop stop-color="#FF00FF"/>
<stop offset="1" stop-color="#FF70DF"/>
</linearGradient>
<linearGradient id="paint10_linear_2863_324" x1="1192.32" y1="685.53" x2="1383.83" y2="685.53" gradientUnits="userSpaceOnUse">
<stop stop-color="#FF00FF"/>
<stop offset="1" stop-color="#FF70DF"/>
</linearGradient>
<linearGradient id="paint11_linear_2863_324" x1="1403.56" y1="685.94" x2="1434.79" y2="685.94" gradientUnits="userSpaceOnUse">
<stop stop-color="#FF00FF"/>
<stop offset="1" stop-color="#FF70DF"/>
</linearGradient>
<linearGradient id="paint12_linear_2863_324" x1="1453.69" y1="685.81" x2="1626.3" y2="685.81" gradientUnits="userSpaceOnUse">
<stop stop-color="#FF00FF"/>
<stop offset="1" stop-color="#FF70DF"/>
</linearGradient>
</defs>
</svg>
